<?xml version="1.0" encoding="UTF-8"?>
<!-- Generator: visioncortex VTracer 0.6.3 -->
<svg version="1.1" xmlns="http://www.w3.org/2000/svg" width="1280" height="408">
<path d="M0 0 C17.16 0.33 34.32 0.66 52 1 C52 86.14 52 171.28 52 259 C33.85 259 15.7 259 -3 259 C-5.67 255.66 -7.78 252.89 -9.86 249.28 C-10.39 248.36 -10.92 247.45 -11.46 246.5 C-12.32 245.02 -12.32 245.02 -13.19 243.5 C-14.44 241.33 -15.7 239.15 -16.96 236.98 C-17.62 235.84 -18.28 234.7 -18.96 233.52 C-22.03 228.21 -25.14 222.92 -28.25 217.63 C-29.68 215.18 -31.12 212.73 -32.56 210.28 C-33.65 208.42 -34.74 206.56 -35.83 204.71 C-39.03 199.24 -42.24 193.77 -45.44 188.31 C-46.5 186.5 -47.56 184.69 -48.62 182.88 C-51.82 177.43 -55.02 171.97 -58.21 166.51 C-65.53 154.01 -72.86 141.52 -80.25 129.06 C-80.9 127.96 -81.55 126.86 -82.23 125.73 C-85.44 120.31 -88.66 114.9 -91.89 109.49 C-92.5 108.47 -93.11 107.45 -93.74 106.39 C-94.89 104.47 -96.04 102.54 -97.19 100.62 C-97.7 99.78 -98.2 98.93 -98.72 98.06 C-99.16 97.32 -99.6 96.58 -100.06 95.82 C-101 94 -101 94 -101 92 C-101.66 92 -102.32 92 -103 92 C-103 147.11 -103 202.22 -103 259 C-119.83 259 -136.66 259 -154 259 C-154 173.86 -154 88.72 -154 1 C-135.52 1 -117.04 1 -98 1 C-85.56 15.54 -85.56 15.54 -83.68 22.06 C-83.25 23.43 -82.81 24.79 -82.35 26.14 C-82.14 26.8 -81.92 27.45 -81.7 28.12 C-79.85 33.1 -76.8 37.52 -74 42 C-72.86 43.95 -71.72 45.9 -70.59 47.86 C-66.61 54.68 -62.62 61.5 -58.62 68.31 C-58.27 68.92 -57.91 69.53 -57.54 70.16 C-52.35 79.02 -47.12 87.86 -41.88 96.69 C-36.06 106.47 -30.34 116.31 -24.68 126.18 C-21.33 132 -17.95 137.8 -14.5 143.56 C-13.95 144.5 -13.95 144.5 -13.38 145.46 C-11.56 148.49 -9.75 151.52 -7.93 154.55 C-7.28 155.62 -6.64 156.7 -5.97 157.81 C-5.4 158.77 -4.82 159.72 -4.23 160.71 C-3 163 -3 163 -3 165 C-2.34 164.67 -1.68 164.34 -1 164 C-1 162.74 -1 162.74 -1 161.46 C-1.02 141.07 -1.04 120.68 -1.05 100.29 C-1.06 90.43 -1.06 80.58 -1.08 70.72 C-1.09 62.13 -1.09 53.54 -1.09 44.95 C-1.1 40.4 -1.1 35.84 -1.11 31.29 C-1.11 27.01 -1.11 22.74 -1.11 18.46 C-1.11 16.88 -1.12 15.31 -1.12 13.73 C-1.12 11.59 -1.12 9.45 -1.12 7.31 C-1.12 5.51 -1.12 5.51 -1.12 3.67 C-1 1 -1 1 0 0 Z " fill="#FCFCFC" transform="translate(178,54)"/>
<path d="M0 0 C0.93 -0 1.87 -0.01 2.83 -0.01 C4.36 -0.01 4.36 -0.01 5.91 -0 C7.47 -0 7.47 -0 9.05 -0.01 C11.25 -0.01 13.45 -0.01 15.65 -0 C19.02 0 22.4 -0 25.77 -0.01 C27.9 -0.01 30.03 -0.01 32.16 -0 C33.18 -0.01 34.19 -0.01 35.24 -0.01 C36.17 -0.01 37.11 -0 38.08 0 C39.32 0 39.32 0 40.59 0 C42.6 0.13 42.6 0.13 44.6 1.13 C44.61 1.77 44.61 2.42 44.61 3.08 C44.65 18.82 44.7 34.55 44.79 50.29 C44.83 57.9 44.86 65.51 44.87 73.11 C44.89 79.75 44.91 86.39 44.96 93.02 C44.98 96.53 45 100.04 45 103.55 C44.99 107.48 45.03 111.41 45.06 115.34 C45.05 116.49 45.05 117.64 45.04 118.83 C45.14 126.54 46.06 134.03 51.28 140.07 C56.47 145.02 62.01 146.2 69.04 146.44 C76.44 146.25 81.3 144.87 86.48 139.44 C92.55 132.62 91.9 123.36 91.89 114.78 C91.9 113.56 91.9 112.34 91.91 111.09 C91.93 108.46 91.94 105.83 91.94 103.2 C91.95 99.04 91.97 94.88 91.99 90.72 C92.04 81.14 92.08 71.57 92.11 62 C92.14 53.21 92.18 44.41 92.23 35.62 C92.25 31.48 92.26 27.35 92.27 23.21 C92.28 20.04 92.3 16.87 92.32 13.7 C92.32 12.56 92.31 11.41 92.31 10.22 C92.32 9.18 92.33 8.14 92.34 7.06 C92.34 6.15 92.34 5.24 92.35 4.31 C92.6 2.13 92.6 2.13 94.6 0.13 C96.58 -0.12 96.58 -0.12 99.02 -0.11 C99.94 -0.12 100.85 -0.12 101.79 -0.12 C102.78 -0.12 103.77 -0.11 104.79 -0.1 C106.31 -0.1 106.31 -0.1 107.86 -0.1 C110.01 -0.1 112.15 -0.09 114.3 -0.08 C117.59 -0.06 120.88 -0.06 124.17 -0.06 C126.25 -0.05 128.34 -0.05 130.42 -0.04 C131.9 -0.04 131.9 -0.04 133.42 -0.04 C134.33 -0.03 135.24 -0.02 136.19 -0.02 C137.4 -0.01 137.4 -0.01 138.63 -0 C140.6 0.13 140.6 0.13 142.6 1.13 C142.61 1.78 142.61 2.42 142.61 3.09 C142.65 18.84 142.7 34.59 142.79 50.34 C142.83 57.96 142.86 65.57 142.87 73.19 C142.89 79.83 142.91 86.47 142.96 93.12 C142.98 96.63 143 100.14 143 103.66 C142.99 107.59 143.03 111.52 143.06 115.45 C143.05 116.6 143.05 117.76 143.04 118.95 C143.15 127.24 145.13 132.84 149.23 139.94 C154.29 144.6 160.43 146.36 167.23 146.57 C174.5 146.23 179.38 144.78 184.48 139.44 C190.55 132.62 189.9 123.36 189.89 114.78 C189.9 113.56 189.9 112.34 189.91 111.09 C189.93 108.46 189.94 105.83 189.94 103.2 C189.95 99.04 189.97 94.88 189.99 90.72 C190.04 81.14 190.08 71.57 190.11 62 C190.14 53.21 190.18 44.41 190.23 35.62 C190.25 31.48 190.26 27.35 190.27 23.21 C190.28 20.04 190.3 16.87 190.32 13.7 C190.32 11.98 190.32 11.98 190.31 10.22 C190.32 9.18 190.33 8.14 190.34 7.06 C190.34 6.15 190.34 5.24 190.35 4.31 C190.6 2.13 190.6 2.13 192.6 0.13 C194.58 -0.12 194.58 -0.12 197.02 -0.11 C197.94 -0.12 198.85 -0.12 199.79 -0.12 C200.78 -0.12 201.77 -0.11 202.79 -0.1 C204.31 -0.1 204.31 -0.1 205.86 -0.1 C208.01 -0.1 210.15 -0.09 212.3 -0.08 C215.59 -0.06 218.88 -0.06 222.17 -0.06 C224.25 -0.05 226.34 -0.05 228.42 -0.04 C229.9 -0.04 229.9 -0.04 231.42 -0.04 C232.33 -0.03 233.24 -0.02 234.19 -0.02 C235.4 -0.01 235.4 -0.01 236.63 -0 C238.6 0.13 238.6 0.13 240.6 1.13 C240.7 18.45 240.77 35.78 240.81 53.11 C240.83 61.15 240.86 69.2 240.91 77.24 C240.95 84.26 240.97 91.28 240.98 98.3 C240.99 102.02 241 105.73 241.03 109.44 C241.23 136.7 238.35 157.8 218.6 178.13 C213.26 183.35 207.33 187.03 200.73 190.44 C199.79 190.93 199.79 190.93 198.84 191.43 C188.91 196.29 178.74 197.67 167.79 197.57 C166.09 197.56 166.09 197.56 164.35 197.54 C148.39 197.23 133.53 192.81 121.32 182.13 C119.67 180.96 119.67 180.96 117.78 181.2 C114.66 182.53 112 184.46 109.23 186.38 C96.96 194.59 84.64 197.31 70.04 197.38 C68.37 197.41 68.37 197.41 66.66 197.44 C46.47 197.54 29.57 189.3 15.29 175.38 C6.55 166.51 0.74 155.82 -3.4 144.13 C-3.91 142.72 -3.91 142.72 -4.44 141.28 C-6.03 135.6 -5.67 129.71 -5.64 123.87 C-5.64 122.53 -5.64 121.19 -5.64 119.85 C-5.65 116.23 -5.64 112.61 -5.63 108.99 C-5.62 105.2 -5.62 101.41 -5.63 97.62 C-5.62 91.26 -5.62 84.91 -5.6 78.55 C-5.59 71.19 -5.58 63.84 -5.58 56.48 C-5.58 49.4 -5.58 42.33 -5.57 35.25 C-5.57 32.23 -5.56 29.22 -5.56 26.21 C-5.56 22.01 -5.55 17.81 -5.54 13.62 C-5.54 12.36 -5.54 11.1 -5.54 9.81 C-5.54 8.1 -5.54 8.1 -5.53 6.37 C-5.53 5.37 -5.53 4.38 -5.52 3.36 C-5.3 -0.61 -3.51 0 0 0 Z M190.6 127.13 C191.6 129.13 191.6 129.13 191.6 129.13 Z M-4.4 135.13 C-3.4 137.13 -3.4 137.13 -3.4 137.13 Z " fill="#FCFCFC" transform="translate(480.396240234375,118.87060546875)"/>
<path d="M0 0 C0.75 0.35 1.51 0.7 2.29 1.06 C13.19 6.2 25.69 12.38 33.53 21.85 C35 23.23 35 23.23 37.34 23.07 C41.08 21.56 43.07 18.9 45.5 15.81 C45.96 15.25 46.42 14.68 46.89 14.1 C48.27 12.41 49.64 10.7 51 9 C55.69 3.16 55.69 3.16 58 2 C59.5 1.91 61 1.87 62.5 1.88 C63.69 1.87 63.69 1.87 64.91 1.87 C67 2 67 2 69 3 C69 66.69 69 130.38 69 196 C65.04 196 61.08 196 57 196 C53.62 192.62 51.52 189.95 49 186 C47.69 184.08 46.37 182.18 45.03 180.29 C44.15 179.03 43.27 177.75 42.41 176.47 C41.35 174.93 40.18 173.46 39 172 C35.39 172 35.17 172.51 32.69 174.94 C11.33 194.29 -13.39 199.89 -41.45 199.18 C-48.92 198.8 -55.9 197.33 -63 195 C-63.66 194.79 -64.32 194.57 -65 194.35 C-78.78 189.72 -89.58 181.96 -100 172 C-100.69 171.39 -101.37 170.78 -102.08 170.14 C-113.54 159.54 -122.3 143.07 -126 128 C-126.25 127 -126.51 126 -126.77 124.98 C-128.84 116.23 -129.54 107.91 -129.5 98.94 C-129.5 98.27 -129.5 97.6 -129.49 96.91 C-129.33 67.89 -118.6 42.69 -98.81 21.44 C-74.52 -1.87 -31.45 -14.88 0 0 Z M-61.97 57 C-72.93 67.81 -78.1 82.68 -78.31 97.81 C-78.21 112.75 -73.1 126.87 -63 138 C-52.87 146.9 -39.11 149.31 -26 149 C-11.71 147.56 -1.15 140.9 8 130 C18.72 115.1 19.29 98.74 17 81 C16.34 81 15.68 81 15 81 C15.33 80.01 15.66 79.02 16 78 C15.34 78 14.68 78 14 78 C13.86 77.45 13.73 76.91 13.59 76.35 C10.54 65.66 3.31 57.82 -6.06 52.15 C-24.56 42.12 -45.46 43.14 -61.97 57 Z M-128 83 C-127 86 -127 86 -127 86 Z M18 89 C19 91 19 91 19 91 Z M18 105 C19 107 19 107 19 107 Z M-128 111 C-127 114 -127 114 -127 114 Z M-36 149 C-32 150 -32 150 -32 150 Z " fill="#FCFCFC" transform="translate(874,117)"/>
<path d="M0 0 C19.39 15.27 31.59 34.63 34.88 59.21 C35.89 69.29 35.51 79.51 35.45 89.63 C35.44 92.27 35.44 94.92 35.43 97.56 C35.42 103.76 35.4 109.96 35.37 116.16 C35.33 123.23 35.32 130.31 35.3 137.38 C35.27 151.9 35.22 166.42 35.15 180.94 C28.21 181.01 21.27 181.07 14.33 181.1 C11.96 181.12 9.6 181.14 7.24 181.16 C3.85 181.2 0.46 181.22 -2.93 181.23 C-4 181.25 -5.06 181.26 -6.15 181.28 C-7.62 181.28 -7.62 181.28 -9.12 181.28 C-10.42 181.29 -10.42 181.29 -11.75 181.3 C-12.44 181.18 -13.13 181.06 -13.85 180.94 C-15.98 177.74 -16.1 176.94 -16.11 173.28 C-16.11 172.32 -16.12 171.36 -16.13 170.38 C-16.12 169.33 -16.12 168.28 -16.12 167.2 C-16.12 166.09 -16.13 164.99 -16.13 163.85 C-16.14 161.44 -16.15 159.03 -16.15 156.63 C-16.16 152.82 -16.17 149 -16.19 145.19 C-16.24 135.71 -16.27 126.24 -16.29 116.76 C-16.31 108.76 -16.34 100.77 -16.39 92.77 C-16.4 90.25 -16.41 87.72 -16.41 85.2 C-16.41 81.66 -16.42 78.12 -16.45 74.58 C-16.44 73.55 -16.44 72.51 -16.43 71.45 C-16.53 61.22 -18.81 51.66 -25.85 43.94 C-35.07 36.75 -45.23 33.63 -56.85 34.94 C-65.8 36.99 -74.45 41.31 -79.96 48.81 C-85.63 58.19 -87.14 65.59 -87.17 76.38 C-87.18 78.08 -87.18 78.08 -87.2 79.81 C-87.23 83.54 -87.24 87.27 -87.26 91 C-87.28 93.59 -87.3 96.18 -87.32 98.77 C-87.37 104.88 -87.4 110.99 -87.44 117.11 C-87.48 124.07 -87.52 131.03 -87.58 137.99 C-87.68 152.31 -87.77 166.62 -87.85 180.94 C-94.79 181.01 -101.73 181.07 -108.67 181.1 C-111.04 181.12 -113.4 181.14 -115.76 181.16 C-119.15 181.2 -122.54 181.22 -125.93 181.23 C-127 181.25 -128.06 181.26 -129.15 181.28 C-130.62 181.28 -130.62 181.28 -132.12 181.28 C-133.42 181.29 -133.42 181.29 -134.75 181.3 C-135.44 181.18 -136.13 181.06 -136.85 180.94 C-139.28 177.3 -139.13 174.62 -139.1 170.42 C-139.1 169.64 -139.11 168.87 -139.11 168.07 C-139.12 165.47 -139.11 162.88 -139.11 160.28 C-139.11 158.42 -139.11 156.56 -139.12 154.7 C-139.13 149.65 -139.12 144.59 -139.12 139.53 C-139.11 134.25 -139.12 128.97 -139.12 123.69 C-139.12 114.81 -139.12 105.94 -139.11 97.07 C-139.1 86.8 -139.1 76.53 -139.11 66.27 C-139.12 57.46 -139.12 48.66 -139.12 39.85 C-139.11 34.59 -139.11 29.32 -139.12 24.06 C-139.13 19.11 -139.12 14.17 -139.11 9.22 C-139.11 7.4 -139.11 5.58 -139.11 3.76 C-139.12 1.28 -139.11 -1.19 -139.1 -3.67 C-139.11 -4.39 -139.11 -5.12 -139.12 -5.87 C-139.08 -10.83 -139.08 -10.83 -136.85 -13.06 C-132.96 -14.15 -129.73 -14.13 -125.85 -13.06 C-120.88 -8.95 -116.88 -4.09 -113.29 1.27 C-111.94 3.05 -111.94 3.05 -109.9 3.87 C-107.01 3.96 -106.16 2.92 -104.04 1 C-73.71 -23.79 -31.05 -22.49 0 0 Z " fill="#FCFCFC" transform="translate(1117.84765625,132.0625)"/>
<path d="M0 0 C0.93 -0 1.87 -0.01 2.83 -0.01 C4.36 -0.01 4.36 -0.01 5.91 -0 C7.47 -0 7.47 -0 9.05 -0.01 C11.25 -0.01 13.45 -0.01 15.65 -0 C19.02 0 22.4 -0 25.77 -0.01 C27.9 -0.01 30.03 -0.01 32.16 -0 C33.18 -0.01 34.19 -0.01 35.24 -0.01 C36.17 -0.01 37.11 -0 38.08 0 C39.32 0 39.32 0 40.59 0 C42.6 0.13 42.6 0.13 44.6 1.13 C44.61 1.71 44.61 2.3 44.61 2.9 C44.67 17.13 44.75 31.36 44.84 45.59 C44.88 52.48 44.92 59.36 44.95 66.24 C44.98 72.89 45.02 79.53 45.07 86.18 C45.08 88.71 45.1 91.24 45.1 93.77 C45.11 97.33 45.14 100.88 45.17 104.44 C45.17 105.48 45.17 106.52 45.17 107.59 C45.32 119.58 48.96 130.9 57.67 139.5 C66.06 146 77.36 147.2 87.6 146.13 C98.06 144.3 105.12 137.43 111.1 129.05 C115.2 121.11 116.04 113.38 116 104.56 C116.01 103.45 116.02 102.34 116.03 101.2 C116.05 97.56 116.05 93.92 116.05 90.29 C116.06 87.75 116.07 85.21 116.09 82.68 C116.12 75.34 116.14 68.01 116.16 60.67 C116.19 50.68 116.22 40.68 116.28 30.68 C116.3 26.95 116.3 23.21 116.3 19.48 C116.31 17.21 116.32 14.94 116.33 12.66 C116.33 11.62 116.33 10.58 116.32 9.5 C116.33 8.55 116.34 7.61 116.35 6.63 C116.35 5.8 116.35 4.98 116.35 4.13 C116.6 2.13 116.6 2.13 118.6 0.13 C120.62 -0.12 120.62 -0.12 123.11 -0.11 C124.05 -0.12 124.98 -0.12 125.94 -0.12 C126.96 -0.12 127.97 -0.11 129.01 -0.1 C130.05 -0.1 131.08 -0.1 132.15 -0.1 C134.34 -0.1 136.53 -0.09 138.73 -0.08 C142.09 -0.06 145.45 -0.06 148.82 -0.06 C150.94 -0.05 153.07 -0.05 155.2 -0.04 C156.21 -0.04 157.22 -0.04 158.26 -0.04 C159.2 -0.03 160.13 -0.02 161.09 -0.02 C161.92 -0.01 162.74 -0.01 163.59 -0 C165.6 0.13 165.6 0.13 167.6 1.13 C167.6 64.82 167.6 128.51 167.6 194.13 C155.6 194.13 155.6 194.13 152.67 192.04 C152.03 191.1 151.39 190.16 150.73 189.19 C150.02 188.2 149.31 187.2 148.58 186.18 C147.93 185.17 147.28 184.17 146.6 183.13 C145.67 181.78 145.67 181.78 144.72 180.4 C143.31 178.33 141.94 176.25 140.6 174.13 C136.47 174.67 133.94 177.12 130.85 179.69 C123.66 185.42 116.05 189.53 107.6 193.13 C106.01 193.81 106.01 193.81 104.39 194.51 C85.68 201.13 62.2 198.62 44.35 190.44 C21.55 179.35 5.96 160.86 -2.46 137.13 C-4.24 131.38 -5.52 125.87 -5.52 119.83 C-5.53 118.78 -5.53 117.73 -5.53 116.65 C-5.53 114.94 -5.53 114.94 -5.53 113.19 C-5.53 111.99 -5.53 110.78 -5.53 109.53 C-5.53 106.23 -5.53 102.92 -5.53 99.62 C-5.53 96.16 -5.53 92.7 -5.53 89.24 C-5.53 83.44 -5.53 77.63 -5.53 71.83 C-5.52 65.11 -5.52 58.39 -5.53 51.68 C-5.53 45.91 -5.53 40.15 -5.53 34.38 C-5.53 30.94 -5.53 27.49 -5.53 24.05 C-5.54 20.21 -5.53 16.38 -5.53 12.55 C-5.53 11.4 -5.53 10.25 -5.53 9.07 C-5.53 8.03 -5.53 6.99 -5.52 5.92 C-5.52 5.02 -5.52 4.11 -5.52 3.18 C-5.29 -0.64 -3.33 0 0 0 Z M117.6 2.13 C117.6 38.1 117.6 74.07 117.6 111.13 C117.93 111.13 118.26 111.13 118.6 111.13 C118.6 75.16 118.6 39.19 118.6 2.13 C118.27 2.13 117.94 2.13 117.6 2.13 Z M-4.4 123.13 C-3.4 125.13 -3.4 125.13 -3.4 125.13 Z " fill="#FCFCFC" transform="translate(272.396240234375,118.87060546875)"/>
<path d="M0 0 C2.25 1.22 4.23 2.53 6.26 4.09 C6.89 4.55 7.53 5.01 8.18 5.48 C14.92 10.74 19.13 17.59 20.26 26.09 C21.01 34.29 20.17 41.88 15.41 48.77 C10.19 54.99 4.61 60.26 -3.7 61.35 C-15.21 62.3 -23.43 60.83 -32.49 53.41 C-38.95 47.32 -42.43 40.97 -42.74 32.09 C-42.83 31.41 -42.91 30.72 -43 30.02 C-43.6 22.78 -40.64 17.05 -36.74 11.09 C-27.77 0.79 -13.3 -4.39 0 0 Z " fill="#5BE0EB" transform="translate(1228.7421875,263.90625)"/>
<path d="M0 0 C0.33 0 0.66 0 1 0 C1 84.15 1 168.3 1 255 C0.67 255 0.34 255 0 255 C0 170.85 0 86.7 0 0 Z " fill="#FDFDFD" transform="translate(22,55)"/>
<path d="M0 0 C0.33 0 0.66 0 1 0 C1 42.24 1 84.48 1 128 C0.67 128 0.34 128 0 128 C0 85.76 0 43.52 0 0 Z " fill="#FDFDFD" transform="translate(474,121)"/>
<path d="M0 0 C0.33 0 0.66 0 1 0 C1 38.28 1 76.56 1 116 C0.67 116 0.34 116 0 116 C0 77.72 0 39.44 0 0 Z " fill="#FDFDFD" transform="translate(266,121)"/>
<path d="M0 0 C17.49 0 34.98 0 53 0 C53 0.33 53 0.66 53 1 C35.51 1 18.02 1 0 1 C0 0.67 0 0.34 0 0 Z " fill="#FDFDFD" transform="translate(24,53)"/>
<path d="M0 0 C16.17 0 32.34 0 49 0 C49 0.33 49 0.66 49 1 C32.83 1 16.66 1 0 1 C0 0.67 0 0.34 0 0 Z " fill="#FDFDFD" transform="translate(179,53)"/>
<path d="M0 0 C4.29 0 8.58 0 13 0 C13 0.33 13 0.66 13 1 C8.71 1 4.42 1 0 1 C0 0.67 0 0.34 0 0 Z " fill="#FDFDFD" transform="translate(838,111)"/>
<path d="M0 0 C1.65 0 3.3 0 5 0 C5 0.33 5 0.66 5 1 C3.35 1 1.7 1 0 1 C0 0.67 0 0.34 0 0 Z " fill="#5BE0EB" transform="translate(1216,262)"/>
<path d="" fill="#5BE0EB" transform="translate(0,0)"/>
<path d="" fill="#FDFDFD" transform="translate(0,0)"/>
</svg>
